<?xml version="1.0" standalone="no"?>
<svg version="1.0" xmlns="http://www.w3.org/2000/svg"
 width="512.000000pt" height="512.000000pt" viewBox="0 0 512.000000 512.000000"
 preserveAspectRatio="xMidYMid meet">

<g transform="translate(0.000000,512.000000) scale(0.100000,-0.100000)"
fill="#000000" stroke="none">
<path d="M1136 4464 c-243 -53 -429 -241 -480 -487 -14 -67 -16 -233 -16
-1417 0 -1470 -2 -1421 59 -1555 40 -86 112 -177 184 -230 77 -59 113 -77 207
-106 l75 -24 1400 0 1400 0 82 28 c193 65 335 207 401 402 l27 80 0 1405 0
1405 -27 80 c-76 222 -244 372 -471 419 -111 23 -2734 23 -2841 0z m1214
-1904 l0 -1490 -565 0 c-501 0 -570 2 -598 16 -45 23 -76 53 -98 96 -18 36
-19 80 -19 1378 0 1298 1 1342 19 1378 22 42 52 72 96 95 26 14 100 16 598 17
l567 0 0 -1490z m1588 1471 c43 -22 73 -53 96 -98 14 -29 16 -158 16 -1373 0
-1298 -1 -1342 -19 -1378 -22 -43 -53 -73 -98 -96 -28 -14 -97 -16 -598 -16
l-565 0 0 1490 0 1490 565 0 c536 0 568 -1 603 -19z"/>
</g>
</svg>
