<?xml version="1.0" standalone="no"?>
<svg version="1.0" xmlns="http://www.w3.org/2000/svg"
 width="512.000000pt" height="512.000000pt" viewBox="0 0 512.000000 512.000000"
 preserveAspectRatio="xMidYMid meet">

<g transform="translate(0.000000,512.000000) scale(0.100000,-0.100000)"
fill="#000000" stroke="none">
<path d="M1001 4464 c-169 -45 -301 -180 -346 -351 -23 -86 -23 -3020 0 -3106
45 -173 178 -307 350 -352 52 -13 244 -15 1555 -15 1311 0 1503 2 1555 15 172
45 305 179 350 352 23 86 23 3020 0 3106 -45 173 -178 307 -350 352 -87 22
-3030 22 -3114 -1z m759 -1904 l0 -1601 -349 3 c-335 3 -351 4 -377 24 -15 11
-37 33 -48 48 -21 27 -21 31 -24 1499 -1 810 0 1486 3 1504 7 40 49 91 90 109
23 10 110 13 368 14 l337 0 0 -1600z m1280 0 l0 -1600 -480 0 -480 0 0 1600 0
1600 480 0 480 0 0 -1600z m1046 1574 c15 -11 37 -33 48 -48 21 -27 21 -28 21
-1526 0 -1498 0 -1499 -21 -1526 -11 -15 -33 -37 -48 -48 -26 -20 -42 -21
-377 -24 l-349 -3 0 1601 0 1601 349 -3 c335 -3 351 -4 377 -24z"/>
</g>
</svg>
